<svg width="209" height="363" viewBox="0 0 209 363" fill="none" xmlns="http://www.w3.org/2000/svg">
<g clip-path="url(#clip0_54_2)" filter="url(#filter0_d_54_2)">
<path d="M85.7 209.3C57.5 199.7 29.6 167.6 20 140C20 104.6 31.4 71.9 47.9 47.3C62.6 33.5 93.5 19.7 120.2 16.4C131.3 16.1 154.7 19.4 164.9 22.7C165.8 32.3 166.4 42.5 166.4 52.4C166.4 61.4 165.8 71 164.9 79.4C162.8 80.3 155.6 81.8 151.4 81.8C147.5 52.4 144.8 43.7 142.4 35.9C132.5 33.2 115.7 31.4 105.5 32C92.3 34.1 72.5 43.4 65 51.8C53.3 67.7 43.4 93.8 41.9 124.1C49.4 158 76.7 183.5 97.1 192.8C109.4 192.2 134.3 188 152 183.2C156.2 165.2 158.9 148.4 159.5 137.9C150.2 137.9 140.3 137.9 131.9 138.2C122 138.2 114.2 138.5 112.1 138.2C110.3 136.1 107.6 130.7 106.7 126.8C127.1 124.4 160.7 120.2 183.8 118.4C185.6 123.5 187.7 131.9 188.3 138.5C184.7 138.5 179.6 138.2 175.7 138.2C174.5 152 171.5 200 170.6 205.1C166.7 204.5 157.1 199.1 152.3 195.2C134.9 201.2 106.4 208.7 85.7 209.3Z" fill="black"/>
<path d="M98.85 168.65C84.75 163.85 70.8 147.8 66 134C66 116.3 71.7 99.95 79.95 87.65C87.3 80.75 102.75 73.85 116.1 72.2C121.65 72.05 133.35 73.7 138.45 75.35C138.9 80.15 139.2 85.25 139.2 90.2C139.2 94.7 138.9 99.5 138.45 103.7C137.4 104.15 133.8 104.9 131.7 104.9C129.75 90.2 128.4 85.85 127.2 81.95C122.25 80.6 113.85 79.7 108.75 80C102.15 81.05 92.25 85.7 88.5 89.9C82.65 97.85 77.7 110.9 76.95 126.05C80.7 143 94.35 155.75 104.55 160.4C110.7 160.1 123.15 158 132 155.6C134.1 146.6 135.45 138.2 135.75 132.95C131.1 132.95 126.15 132.95 121.95 133.1C117 133.1 113.1 133.25 112.05 133.1C111.15 132.05 109.8 129.35 109.35 127.4C119.55 126.2 136.35 124.1 147.9 123.2C148.8 125.75 149.85 129.95 150.15 133.25C148.35 133.25 145.8 133.1 143.85 133.1C143.25 140 141.75 164 141.3 166.55C139.35 166.25 134.55 163.55 132.15 161.6C123.45 164.6 109.2 168.35 98.85 168.65Z" fill="black"/>
<path d="M115.988 319.938C116.249 319.482 116.444 319.189 116.574 319.059C116.77 318.863 116.965 318.733 117.16 318.668C117.421 318.603 117.616 318.538 117.746 318.473C118.007 318.342 119.504 317.757 122.238 316.715C125.038 315.673 127.707 314.143 130.246 312.125C136.366 307.242 141.346 301.839 145.188 295.914C145.643 295.133 145.871 294.254 145.871 293.277C145.871 292.04 145.839 291.096 145.773 290.445L144.895 286.441C142.681 275.699 141.151 269.286 140.305 267.203C139.589 265.315 138.84 263.818 138.059 262.711C137.342 261.539 136.236 260.27 134.738 258.902C132.525 256.949 129.367 254.833 125.266 252.555C121.229 250.211 117.03 248.062 112.668 246.109C112.082 245.849 111.626 245.589 111.301 245.328C111.04 245.003 110.91 244.579 110.91 244.059C110.91 243.473 111.366 242.561 112.277 241.324C112.668 240.803 113.579 239.469 115.012 237.32C118.007 233.089 119.829 230.582 120.48 229.801C121.262 228.889 121.848 228.434 122.238 228.434C122.694 228.434 123.638 228.857 125.07 229.703C130.018 232.568 134.152 235.074 137.473 237.223C140.858 239.306 143.788 241.454 146.262 243.668C148.605 245.947 150.493 248.779 151.926 252.164C153.423 255.484 154.367 258.902 154.758 262.418L157.297 281.949C159.445 298.03 160.943 309.586 161.789 316.617C162.049 318.57 162.18 319.905 162.18 320.621C162.18 321.728 162.049 322.672 161.789 323.453C161.333 325.341 160.487 327.848 159.25 330.973C158.078 334.098 157.069 336.376 156.223 337.809C156.158 338.004 155.995 338.167 155.734 338.297C155.474 338.427 155.214 338.492 154.953 338.492C154.432 338.492 154.042 338.264 153.781 337.809C153.26 337.027 152.674 334.911 152.023 331.461C151.438 327.945 150.884 324.495 150.363 321.109C149.842 317.659 149.517 315.478 149.387 314.566L148.312 307.242C148.312 307.112 148.215 306.949 148.02 306.754C147.889 306.559 147.759 306.461 147.629 306.461C147.368 306.461 146.978 306.884 146.457 307.73C142.16 316.324 136.952 322.965 130.832 327.652C128.228 329.671 124.875 331.656 120.773 333.609C116.672 335.497 113.547 336.441 111.398 336.441C110.617 336.441 110.227 336.083 110.227 335.367C110.227 334.977 111.073 332.503 112.766 327.945C114.523 323.388 115.598 320.719 115.988 319.938Z" fill="black"/>
<path d="M61.9883 319.938C62.2487 319.482 62.444 319.189 62.5742 319.059C62.7695 318.863 62.9648 318.733 63.1602 318.668C63.4206 318.603 63.6159 318.538 63.7461 318.473C64.0065 318.342 65.5039 317.757 68.2383 316.715C71.0378 315.673 73.707 314.143 76.2461 312.125C82.3659 307.242 87.3464 301.839 91.1875 295.914C91.6432 295.133 91.8711 294.254 91.8711 293.277C91.8711 292.04 91.8385 291.096 91.7734 290.445L90.8945 286.441C88.681 275.699 87.151 269.286 86.3047 267.203C85.5885 265.315 84.8398 263.818 84.0586 262.711C83.3424 261.539 82.2357 260.27 80.7383 258.902C78.5247 256.949 75.3672 254.833 71.2656 252.555C67.2292 250.211 63.0299 248.062 58.668 246.109C58.082 245.849 57.6263 245.589 57.3008 245.328C57.0404 245.003 56.9102 244.579 56.9102 244.059C56.9102 243.473 57.3659 242.561 58.2773 241.324C58.668 240.803 59.5794 239.469 61.0117 237.32C64.0065 233.089 65.8294 230.582 66.4805 229.801C67.2617 228.889 67.8477 228.434 68.2383 228.434C68.694 228.434 69.638 228.857 71.0703 229.703C76.0182 232.568 80.1523 235.074 83.4727 237.223C86.8581 239.306 89.7878 241.454 92.2617 243.668C94.6055 245.947 96.4935 248.779 97.9258 252.164C99.4232 255.484 100.367 258.902 100.758 262.418L103.297 281.949C105.445 298.03 106.943 309.586 107.789 316.617C108.049 318.57 108.18 319.905 108.18 320.621C108.18 321.728 108.049 322.672 107.789 323.453C107.333 325.341 106.487 327.848 105.25 330.973C104.078 334.098 103.069 336.376 102.223 337.809C102.158 338.004 101.995 338.167 101.734 338.297C101.474 338.427 101.214 338.492 100.953 338.492C100.432 338.492 100.042 338.264 99.7812 337.809C99.2604 337.027 98.6745 334.911 98.0234 331.461C97.4375 327.945 96.8841 324.495 96.3633 321.109C95.8424 317.659 95.5169 315.478 95.3867 314.566L94.3125 307.242C94.3125 307.112 94.2148 306.949 94.0195 306.754C93.8893 306.559 93.7591 306.461 93.6289 306.461C93.3685 306.461 92.9779 306.884 92.457 307.73C88.1602 316.324 82.9518 322.965 76.832 327.652C74.2279 329.671 70.875 331.656 66.7734 333.609C62.6719 335.497 59.5469 336.441 57.3984 336.441C56.6172 336.441 56.2266 336.083 56.2266 335.367C56.2266 334.977 57.0729 332.503 58.7656 327.945C60.5234 323.388 61.5977 320.719 61.9883 319.938Z" fill="black"/>
</g>
<defs>
<filter id="filter0_d_54_2" x="-6" y="-5" width="219" height="384" filterUnits="userSpaceOnUse" color-interpolation-filters="sRGB">
<feFlood flood-opacity="0" result="BackgroundImageFix"/>
<feColorMatrix in="SourceAlpha" type="matrix" values="0 0 0 0 0 0 0 0 0 0 0 0 0 0 0 0 0 0 127 0" result="hardAlpha"/>
<feOffset dy="4"/>
<feGaussianBlur stdDeviation="10"/>
<feColorMatrix type="matrix" values="0 0 0 0 0.690196 0 0 0 0 0.698039 0 0 0 0 0.439216 0 0 0 1 0"/>
<feBlend mode="normal" in2="BackgroundImageFix" result="effect1_dropShadow_54_2"/>
<feBlend mode="normal" in="SourceGraphic" in2="effect1_dropShadow_54_2" result="shape"/>
</filter>
<clipPath id="clip0_54_2">
<rect width="179" height="344" fill="white" transform="translate(14 11)"/>
</clipPath>
</defs>
</svg>
